<svg width="35" height="35" viewBox="0 0 35 35" fill="none" xmlns="http://www.w3.org/2000/svg">
<path d="M4.375 31.7188C4.375 32.589 4.7207 33.4236 5.33606 34.0389C5.95141 34.6543 6.78601 35 7.65625 35H27.3438C28.214 35 29.0486 34.6543 29.6639 34.0389C30.2793 33.4236 30.625 32.589 30.625 31.7188V8.75H4.375V31.7188ZM22.9688 14.2187C22.9688 13.9287 23.084 13.6505 23.2891 13.4453C23.4942 13.2402 23.7724 13.125 24.0625 13.125C24.3526 13.125 24.6308 13.2402 24.8359 13.4453C25.041 13.6505 25.1562 13.9287 25.1562 14.2187V29.5312C25.1562 29.8213 25.041 30.0995 24.8359 30.3046C24.6308 30.5098 24.3526 30.625 24.0625 30.625C23.7724 30.625 23.4942 30.5098 23.2891 30.3046C23.084 30.0995 22.9688 29.8213 22.9688 29.5312V14.2187ZM16.4062 14.2187C16.4062 13.9287 16.5215 13.6505 16.7266 13.4453C16.9317 13.2402 17.2099 13.125 17.5 13.125C17.7901 13.125 18.0683 13.2402 18.2734 13.4453C18.4785 13.6505 18.5938 13.9287 18.5938 14.2187V29.5312C18.5938 29.8213 18.4785 30.0995 18.2734 30.3046C18.0683 30.5098 17.7901 30.625 17.5 30.625C17.2099 30.625 16.9317 30.5098 16.7266 30.3046C16.5215 30.0995 16.4062 29.8213 16.4062 29.5312V14.2187ZM9.84375 14.2187C9.84375 13.9287 9.95898 13.6505 10.1641 13.4453C10.3692 13.2402 10.6474 13.125 10.9375 13.125C11.2276 13.125 11.5058 13.2402 11.7109 13.4453C11.916 13.6505 12.0312 13.9287 12.0312 14.2187V29.5312C12.0312 29.8213 11.916 30.0995 11.7109 30.3046C11.5058 30.5098 11.2276 30.625 10.9375 30.625C10.6474 30.625 10.3692 30.5098 10.1641 30.3046C9.95898 30.0995 9.84375 29.8213 9.84375 29.5312V14.2187ZM31.7188 2.1875H23.5156L22.873 0.909177C22.7369 0.635885 22.5273 0.405999 22.2676 0.245379C22.008 0.0847584 21.7086 -0.000222249 21.4033 -3.27353e-06H13.5898C13.2852 -0.00117431 12.9864 0.0834895 12.7277 0.244288C12.469 0.405087 12.2608 0.635517 12.127 0.909177L11.4844 2.1875H3.28125C2.99117 2.1875 2.71297 2.30273 2.50785 2.50785C2.30273 2.71297 2.1875 2.99117 2.1875 3.28125V5.46875C2.1875 5.75883 2.30273 6.03703 2.50785 6.24215C2.71297 6.44726 2.99117 6.5625 3.28125 6.5625H31.7188C32.0088 6.5625 32.287 6.44726 32.4921 6.24215C32.6973 6.03703 32.8125 5.75883 32.8125 5.46875V3.28125C32.8125 2.99117 32.6973 2.71297 32.4921 2.50785C32.287 2.30273 32.0088 2.1875 31.7188 2.1875Z" fill="black"/>
</svg>
