<svg width="37" height="37" viewBox="0 0 37 37" fill="none" xmlns="http://www.w3.org/2000/svg">
<path d="M18.5 0.5C8.5595 0.5 0.5 8.5595 0.5 18.5C0.5 28.4405 8.5595 36.5 18.5 36.5C28.4405 36.5 36.5 28.4405 36.5 18.5C36.5 8.5595 28.4405 0.5 18.5 0.5ZM28.5605 15.0605L17.2205 26.4005C16.9385 26.6825 16.5575 26.84 16.16 26.84C15.7625 26.84 15.38 26.6825 15.0995 26.4005L9.92 21.221C9.3335 20.6345 9.3335 19.6865 9.92 19.1C10.5065 18.5135 11.4545 18.5135 12.041 19.1L16.16 23.219L26.4395 12.9395C27.026 12.353 27.974 12.353 28.5605 12.9395C29.147 13.526 29.147 14.474 28.5605 15.0605Z" fill="black"/>
</svg>
